HIERARCHY
ROOT Hips
{
	OFFSET	0.000000	0.000000	0.000000
	CHANNELS 6 Xposition Yposition Zposition Zrotation Xrotation Yrotation
	JOINT LeftHip
	{
		OFFSET	4.740440	-3.195970	-0.322709
		CHANNELS 3 Zrotation Xrotation Yrotation
		JOINT LeftKnee
		{
			OFFSET	-1.605680	-15.592300	1.005510
			CHANNELS 3 Zrotation Xrotation Yrotation
			JOINT LeftAnkle
			{
				OFFSET	-0.632401	-16.421000	-1.413730
				CHANNELS 3 Zrotation Xrotation Yrotation
				End Site
				{
					OFFSET	0.008423	-3.021750	-1.660875
				}
			}
		}
	}
	JOINT RightHip
	{
		OFFSET	-4.740440	-3.195970	-0.322709
		CHANNELS 3 Zrotation Xrotation Yrotation
		JOINT RightKnee
		{
			OFFSET	1.605680	-15.592300	1.005510
			CHANNELS 3 Zrotation Xrotation Yrotation
			JOINT RightAnkle
			{
				OFFSET	0.632401	-16.421000	-1.413730
				CHANNELS 3 Zrotation Xrotation Yrotation
				End Site
				{
					OFFSET	-0.008423	-3.021750	-1.660875
				}
			}
		}
	}
	JOINT Chest
	{
		OFFSET	0.000000	3.468200	0.078401
		CHANNELS 3 Zrotation Xrotation Yrotation
		JOINT LeftCollar
		{
			OFFSET	3.857650	15.070700	-0.011583
			CHANNELS 3 Zrotation Xrotation Yrotation
			JOINT LeftShoulder
			{
				OFFSET	3.979720	-1.940530	-0.165223
				CHANNELS 3 Zrotation Xrotation Yrotation
				JOINT LeftElbow
				{
					OFFSET	0.615844	-10.986600	-0.673886
					CHANNELS 3 Zrotation Xrotation Yrotation
					JOINT LeftWrist
					{
						OFFSET	0.826843	-10.854500	1.034220
						CHANNELS 3 Zrotation Xrotation Yrotation
						End Site
						{
							OFFSET	-1.679080	-8.456540	0.936217
						}
					}
				}
			}
		}
		JOINT RightCollar
		{
			OFFSET	-3.857650	15.070700	-0.011583
			CHANNELS 3 Zrotation Xrotation Yrotation
			JOINT RightShoulder
			{
				OFFSET	-3.979720	-1.940530	-0.165223
				CHANNELS 3 Zrotation Xrotation Yrotation
				JOINT RightElbow
				{
					OFFSET	-0.615845	-10.986600	-0.673886
					CHANNELS 3 Zrotation Xrotation Yrotation
					JOINT RightWrist
					{
						OFFSET	-0.826843	-10.854500	1.034220
						CHANNELS 3 Zrotation Xrotation Yrotation
						End Site
						{
							OFFSET	1.679080	-8.456540	0.936217
						}
					}
				}
			}
		}
		JOINT Neck
		{
			OFFSET	0.000000	15.101400	0.055730
			CHANNELS 3 Zrotation Xrotation Yrotation
			JOINT Head
			{
				OFFSET	0.000000	4.185120	1.488260
				CHANNELS 3 Zrotation Xrotation Yrotation
				End Site
				{
					OFFSET	0.000000	7.773420	-0.106016
				}
			}
		}
	}
}
MOTION
Frames:     7
Frame Time: 0.016667
-0.084595	38.246128	-0.225864	0.041946	0.162033	0.493056	0.039115	-0.086300	-0.356226	-0.034828	-0.731111	0.021933	-0.046908	0.655254	-0.158153	0.319309	0.096342	-0.008434	-0.065851	-1.062675	-0.751527	-0.307313	0.800641	0.271745	-0.648075	-0.259187	0.945731	8.123368	-3.828663	-2.294878	61.059776	4.021795	16.448599	9.256327	-1.205854	22.978506	18.622736	0.739898	-38.269436	-7.103603	-1.562360	0.762083	-65.016464	10.902160	-26.575441	-8.301103	3.776896	14.893243	-14.457111	-6.090618	20.527565	2.005794	3.765641	3.441903	-0.822275	5.377624	-4.537976	
-0.084595	38.246128	-0.225864	0.041946	0.162033	0.493056	0.039115	-0.086300	-0.356226	-0.034828	-0.731111	0.021933	-0.046908	0.655254	-0.158153	0.313946	0.090431	-0.009063	-0.062237	-1.056694	-0.743969	-0.305456	0.800631	0.264798	-0.653507	-0.268115	0.944638	8.128121	-3.807611	-2.303654	61.058716	4.025514	16.428246	9.242039	-1.222223	22.976433	18.546534	0.659188	-38.348221	-7.107573	-1.514085	0.737245	-64.980484	10.843040	-26.603670	-8.299879	3.781104	14.891192	-14.437675	-6.070683	20.525135	2.002050	3.825778	3.454542	-0.829117	5.334022	-4.597078	
-0.084595	38.246128	-0.225864	0.041946	0.162033	0.493056	0.039115	-0.086300	-0.356226	-0.034828	-0.731111	0.021933	-0.046908	0.655254	-0.158153	0.296967	0.071723	-0.011074	-0.050116	-1.037780	-0.722666	-0.300294	0.800590	0.245457	-0.668834	-0.293308	0.941549	8.122520	-3.749017	-2.343345	61.075798	4.046259	16.415474	9.240787	-1.230270	22.927298	18.481699	0.633007	-38.359451	-7.100729	-1.448186	0.717176	-64.916809	10.760128	-26.621302	-8.308724	3.839851	14.873508	-14.363464	-6.063946	20.502012	1.998005	3.959976	3.482086	-0.818270	5.372805	-4.660948	
-0.084595	38.246128	-0.225864	0.041946	0.162033	0.493056	0.039115	-0.086300	-0.356226	-0.034828	-0.731111	0.021933	-0.046908	0.655254	-0.158153	0.291185	0.065349	-0.011762	-0.045959	-1.031342	-0.715518	-0.298565	0.800581	0.238977	-0.673333	-0.300704	0.940640	8.115355	-3.732367	-2.359154	61.086868	4.055036	16.430397	9.239512	-1.230878	22.895634	18.415903	0.570359	-38.404083	-7.082759	-1.401722	0.703933	-64.923248	10.728070	-26.648384	-8.287660	3.860280	14.870290	-14.351741	-6.067138	20.493734	2.002580	3.967324	3.482713	-0.816309	5.379406	-4.660856	
-0.084595	38.246128	-0.225864	0.041946	0.162033	0.493056	0.039115	-0.086300	-0.356226	-0.034828	-0.731111	0.021933	-0.046908	0.655254	-0.158153	0.270736	0.042815	-0.014178	-0.030363	-1.008608	-0.693799	-0.293401	0.800547	0.219621	-0.681341	-0.313871	0.939025	8.086955	-3.692583	-2.406665	61.121361	4.082177	16.474178	9.237820	-1.228961	22.870693	18.379623	0.556710	-38.501785	-7.059476	-1.350131	0.692688	-64.933258	10.698303	-26.677654	-8.211735	3.938823	14.966546	-14.256150	-6.031935	20.576227	2.024268	4.006853	3.480429	-0.839372	5.388897	-4.665038	
-0.084595	38.246128	-0.225864	0.041946	0.162033	0.493056	0.039115	-0.086300	-0.356226	-0.034828	-0.731111	0.021933	-0.046908	0.655254	-0.158153	0.261394	0.032521	-0.015283	-0.022562	-0.998246	-0.686553	-0.291758	0.800529	0.213464	-0.681341	-0.313871	0.939025	8.075535	-3.682824	-2.422333	61.130188	4.093692	16.440866	9.239840	-1.224407	22.919416	18.370218	0.564294	-38.581985	-7.052000	-1.331019	0.685427	-64.926842	10.697034	-26.693378	-8.190371	3.952286	15.023141	-14.222014	-6.015612	20.576414	2.024268	4.006853	3.480429	-0.813360	5.486904	-4.664662	
-0.084595	38.246128	-0.225864	0.041946	0.162033	0.493056	0.039115	-0.086300	-0.356226	-0.034828	-0.731111	0.021933	-0.046908	0.655254	-0.158153	0.234513	0.002903	-0.018492	0.000172	-0.968441	-0.666820	-0.287331	0.800484	0.196877	-0.681341	-0.313871	0.939025	8.043052	-3.653275	-2.468053	61.158226	4.121772	16.427748	9.236056	-1.211785	22.885773	18.363810	0.591831	-38.564163	-7.026635	-1.280575	0.656864	-64.886070	10.657458	-26.735010	-8.226140	3.937964	15.065524	-14.151225	-5.980083	20.675457	2.055310	4.017298	3.465661	-0.836854	5.509208	-4.651677	
